<?xml version="1.0" encoding="UTF-8" standalone="no"?>
<svg
   viewBox="0 0 445.83689 105.68505"
   height="105.68504"
   width="445.83688"
   xml:space="preserve"
   id="svg2"
   version="1.1"
   sodipodi:docname="logo-big.svg"
   inkscape:version="1.3.2 (091e20e, 2023-11-25, custom)"
   xmlns:inkscape="http://www.inkscape.org/namespaces/inkscape"
   xmlns:sodipodi="http://sodipodi.sourceforge.net/DTD/sodipodi-0.dtd"
   xmlns="http://www.w3.org/2000/svg"
   xmlns:svg="http://www.w3.org/2000/svg"
   xmlns:rdf="http://www.w3.org/1999/02/22-rdf-syntax-ns#"
   xmlns:cc="http://creativecommons.org/ns#"
   xmlns:dc="http://purl.org/dc/elements/1.1/"><sodipodi:namedview
     id="namedview1"
     pagecolor="#ffffff"
     bordercolor="#000000"
     borderopacity="0.25"
     inkscape:showpageshadow="2"
     inkscape:pageopacity="0.0"
     inkscape:pagecheckerboard="0"
     inkscape:deskcolor="#d1d1d1"
     inkscape:zoom="1.4287737"
     inkscape:cx="224.31824"
     inkscape:cy="81.538455"
     inkscape:window-width="1920"
     inkscape:window-height="1017"
     inkscape:window-x="-8"
     inkscape:window-y="-8"
     inkscape:window-maximized="1"
     inkscape:current-layer="svg2" /><metadata
     id="metadata8"><rdf:RDF><cc:Work
         rdf:about=""><dc:format>image/svg+xml</dc:format><dc:type
           rdf:resource="http://purl.org/dc/dcmitype/StillImage" /></cc:Work></rdf:RDF></metadata><defs
     id="defs6"><radialGradient
   id="radialGradient30"
   spreadMethod="pad"
   gradientTransform="matrix(34.439556,0,0,-33.145462,59.628426,241.03687)"
   gradientUnits="userSpaceOnUse"
   r="1"
   cy="0"
   cx="0"
   fy="0"
   fx="0"><stop
     id="stop24"
     offset="0"
     style="stop-opacity:1;stop-color:#40c1ea" /><stop
     id="stop26"
     offset="0.34444714"
     style="stop-opacity:1;stop-color:#40c1ea" /><stop
     id="stop28"
     offset="1"
     style="stop-opacity:1;stop-color:#3d90ca" /></radialGradient><clipPath
   id="clipPath40"
   clipPathUnits="userSpaceOnUse"><path
     id="path38"
     d="M 0,430.964 H 348.622 V 0 H 0 Z" /></clipPath><radialGradient
   id="radialGradient100"
   spreadMethod="pad"
   gradientTransform="matrix(33.641316,0,0,-33.641316,59.577095,136.96872)"
   gradientUnits="userSpaceOnUse"
   r="1"
   cy="0"
   cx="0"
   fy="0"
   fx="0"><stop
     id="stop94"
     offset="0"
     style="stop-opacity:1;stop-color:#40c1ea" /><stop
     id="stop96"
     offset="0.34444714"
     style="stop-opacity:1;stop-color:#40c1ea" /><stop
     id="stop98"
     offset="1"
     style="stop-opacity:1;stop-color:#3d90ca" /></radialGradient><clipPath
   id="clipPath110"
   clipPathUnits="userSpaceOnUse"><path
     id="path108"
     d="M 0,430.964 H 348.622 V 0 H 0 Z" /></clipPath><radialGradient
   id="radialGradient338"
   spreadMethod="pad"
   gradientTransform="matrix(31.705753,0,0,-31.705753,56.21299,344.89502)"
   gradientUnits="userSpaceOnUse"
   r="1"
   cy="0"
   cx="0"
   fy="0"
   fx="0"><stop
     id="stop332"
     offset="0"
     style="stop-opacity:1;stop-color:#40c1ea" /><stop
     id="stop334"
     offset="0.34444714"
     style="stop-opacity:1;stop-color:#40c1ea" /><stop
     id="stop336"
     offset="1"
     style="stop-opacity:1;stop-color:#3d90ca" /></radialGradient><clipPath
   id="clipPath348"
   clipPathUnits="userSpaceOnUse"><path
     id="path346"
     d="M 0,430.964 H 348.622 V 0 H 0 Z" /></clipPath><radialGradient
   id="radialGradient658"
   spreadMethod="pad"
   gradientTransform="matrix(34.67873,0,0,-34.67873,59.546936,34.197647)"
   gradientUnits="userSpaceOnUse"
   r="1"
   cy="0"
   cx="0"
   fy="0"
   fx="0"><stop
     id="stop652"
     offset="0"
     style="stop-opacity:1;stop-color:#40c1ea" /><stop
     id="stop654"
     offset="0.34444714"
     style="stop-opacity:1;stop-color:#40c1ea" /><stop
     id="stop656"
     offset="1"
     style="stop-opacity:1;stop-color:#3d90ca" /></radialGradient><clipPath
   id="clipPath668"
   clipPathUnits="userSpaceOnUse"><path
     id="path666"
     d="M 0,430.964 H 348.622 V 0 H 0 Z" /></clipPath>
</defs><g
     id="g320"
     transform="matrix(1.3333333,0,0,-1.3333333,-9.098712,527.72531)"><g
       id="g322"><g
         id="g328"><g
           id="g330"><path
             id="path340"
             style="fill:url(#radialGradient338);stroke:none"
             d="m 12.902,355.975 c 0,-18.629 15.103,-33.734 33.734,-33.734 v 0 c 18.63,0 33.734,15.105 33.734,33.734 v 0 c 0,18.632 -15.104,33.736 -33.734,33.736 v 0 c -18.631,0 -33.734,-15.104 -33.734,-33.736" /></g></g></g></g><g
     clip-path="url(#clipPath348)"
     id="g344"
     transform="matrix(1.3333333,0,0,-1.3333333,-9.098712,527.72531)"><g
       transform="translate(14.563,355.9756)"
       id="g350"><path
         id="path352"
         style="fill:#ffffff;fill-opacity:1;fill-rule:nonzero;stroke:none"
         d="m 0,0 c 0.033,17.854 14.359,32.33 32.074,32.332 v -0.36 -0.359 C 14.758,31.582 0.718,17.461 0.718,0 c 0,-17.463 14.04,-31.581 31.356,-31.612 17.315,0.031 31.354,14.149 31.354,31.612 0,17.461 -14.039,31.582 -31.354,31.613 v 0.359 0.36 C 49.79,32.33 64.113,17.854 64.146,0 64.113,-17.853 49.79,-32.329 32.074,-32.331 14.359,-32.329 0.033,-17.853 0,0" /></g><g
       transform="translate(49.043,347.4669)"
       id="g354"><path
         id="path356"
         style="fill:#ffffff;fill-opacity:1;fill-rule:evenodd;stroke:none"
         d="M 0,0 V 4.985 C 8.884,4.976 17.437,11.639 13.236,21.486 9.937,29.221 -2.758,31.535 -10.828,26.644 -27.185,16.729 -21.468,-11.047 0,-10.829 v -4.985 c -15.373,-0.119 -30.031,16.293 -23.377,33.347 2.389,6.121 7.531,10.782 13.579,13.237 4.241,1.718 10.134,2.075 14.783,0.686 C 24.455,25.64 21.005,1.115 0,0" /></g><g
       transform="translate(49.043,370.5001)"
       id="g358"><path
         id="path360"
         style="fill:#ffffff;fill-opacity:1;fill-rule:evenodd;stroke:none"
         d="m 0,0 v -1.718 c -14.01,0.253 -14.166,-20.968 0,-21.315 v -4.814 C -18.566,-26.533 -18.318,0.3 0,0" /></g><g
       transform="translate(49.043,365.6871)"
       id="g362"><path
         id="path364"
         style="fill:#ffffff;fill-opacity:1;fill-rule:evenodd;stroke:none"
         d="M 0,0 C -0.057,-0.458 -0.115,-0.917 -0.171,-1.375 -2.563,-1.634 -4.226,-3.919 -3.609,-6.016 -2.993,-8.112 -2.016,-8.482 0,-8.766 v -4.297 C -8.13,-13.141 -8.391,-0.005 0,0" /></g><g
       transform="translate(49.0469,372.2496)"
       id="g366"><path
         id="path368"
         style="fill:#ffffff;fill-opacity:1;fill-rule:evenodd;stroke:none"
         d="m 0,0 c -0.012,-0.015 -0.018,-0.033 -0.029,-0.049 v -1.695 c 5.862,-0.501 6.259,-9.563 0,-9.764 v -3.786 C 10.328,-15.267 9.99,-2.516 0,0" /></g><g
       transform="translate(102.7935,384.858)"
       id="g370"><path
         id="path372"
         style="fill:#231f20;fill-opacity:1;fill-rule:nonzero;stroke:none"
         d="m 0,0 v -7.625 h -1.35 v 6.538 H -4.803 V -7.625 H -6.154 V 0 Z" /></g><g
       transform="translate(102.7935,384.858)"
       id="g374"><path
         id="path376"
         style="fill:none;stroke:#231f20;stroke-width:0.352;stroke-linecap:butt;stroke-linejoin:miter;stroke-miterlimit:4;stroke-dasharray:none;stroke-opacity:1"
         d="m 0,0 v -7.625 h -1.35 v 6.538 H -4.803 V -7.625 H -6.154 V 0 Z" /></g><g
       transform="translate(110.6655,381.7857)"
       id="g378"><path
         id="path380"
         style="fill:#231f20;fill-opacity:1;fill-rule:nonzero;stroke:none"
         d="M 0,0 C 0.016,0.867 -0.353,2.237 -1.872,2.237 -3.253,2.237 -3.836,0.961 -3.943,0 Z m -3.959,-0.992 c 0.031,-1.875 1.182,-2.647 2.547,-2.647 0.967,0 1.566,0.173 2.057,0.393 L 0.89,-4.238 c -0.475,-0.22 -1.305,-0.488 -2.486,-0.488 -2.286,0 -3.652,1.56 -3.652,3.86 0,2.3 1.32,4.096 3.483,4.096 2.44,0 3.07,-2.174 3.07,-3.576 0,-0.284 -0.015,-0.489 -0.046,-0.646 z" /></g><g
       transform="translate(110.6655,381.7857)"
       id="g382"><path
         id="path384"
         style="fill:none;stroke:#231f20;stroke-width:0.352;stroke-linecap:butt;stroke-linejoin:miter;stroke-miterlimit:4;stroke-dasharray:none;stroke-opacity:1"
         d="M 0,0 C 0.016,0.867 -0.353,2.237 -1.872,2.237 -3.253,2.237 -3.836,0.961 -3.943,0 Z m -3.959,-0.992 c 0.031,-1.875 1.182,-2.647 2.547,-2.647 0.967,0 1.566,0.173 2.057,0.393 L 0.89,-4.238 c -0.475,-0.22 -1.305,-0.488 -2.486,-0.488 -2.286,0 -3.652,1.56 -3.652,3.86 0,2.3 1.32,4.096 3.483,4.096 2.44,0 3.07,-2.174 3.07,-3.576 0,-0.284 -0.015,-0.489 -0.046,-0.646 z" /></g><g
       transform="translate(115.9443,380.3365)"
       id="g386"><path
         id="path388"
         style="fill:#231f20;fill-opacity:1;fill-rule:nonzero;stroke:none"
         d="M 0,0 C 0,-0.205 0.015,-0.394 0.062,-0.567 0.307,-1.528 1.12,-2.19 2.087,-2.19 c 1.427,0 2.256,1.198 2.256,2.946 0,1.513 -0.782,2.82 -2.21,2.82 C 1.212,3.576 0.337,2.915 0.092,1.875 0.046,1.702 0,1.497 0,1.323 Z m -1.335,2.033 c 0,0.976 -0.031,1.764 -0.061,2.488 h 1.197 l 0.076,-1.307 h 0.031 c 0.537,0.93 1.427,1.465 2.639,1.465 1.811,0 3.161,-1.559 3.161,-3.86 0,-2.741 -1.642,-4.096 -3.391,-4.096 -0.982,0 -1.841,0.442 -2.286,1.197 H 0 v -4.143 h -1.335 z" /></g><g
       transform="translate(115.9443,380.3365)"
       id="g390"><path
         id="path392"
         style="fill:none;stroke:#231f20;stroke-width:0.352;stroke-linecap:butt;stroke-linejoin:miter;stroke-miterlimit:4;stroke-dasharray:none;stroke-opacity:1"
         d="M 0,0 C 0,-0.205 0.015,-0.394 0.062,-0.567 0.307,-1.528 1.12,-2.19 2.087,-2.19 c 1.427,0 2.256,1.198 2.256,2.946 0,1.513 -0.782,2.82 -2.21,2.82 C 1.212,3.576 0.337,2.915 0.092,1.875 0.046,1.702 0,1.497 0,1.323 Z m -1.335,2.033 c 0,0.976 -0.031,1.764 -0.061,2.488 h 1.197 l 0.076,-1.307 h 0.031 c 0.537,0.93 1.427,1.465 2.639,1.465 1.811,0 3.161,-1.559 3.161,-3.86 0,-2.741 -1.642,-4.096 -3.391,-4.096 -0.982,0 -1.841,0.442 -2.286,1.197 H 0 v -4.143 h -1.335 z" /></g><g
       transform="translate(129.0186,381.7857)"
       id="g394"><path
         id="path396"
         style="fill:#231f20;fill-opacity:1;fill-rule:nonzero;stroke:none"
         d="M 0,0 C 0.016,0.867 -0.353,2.237 -1.872,2.237 -3.253,2.237 -3.836,0.961 -3.943,0 Z m -3.959,-0.992 c 0.031,-1.875 1.182,-2.647 2.547,-2.647 0.968,0 1.566,0.173 2.057,0.393 L 0.89,-4.238 c -0.475,-0.22 -1.305,-0.488 -2.486,-0.488 -2.286,0 -3.652,1.56 -3.652,3.86 0,2.3 1.32,4.096 3.483,4.096 2.441,0 3.07,-2.174 3.07,-3.576 0,-0.284 -0.015,-0.489 -0.046,-0.646 z" /></g><g
       transform="translate(129.0186,381.7857)"
       id="g398"><path
         id="path400"
         style="fill:none;stroke:#231f20;stroke-width:0.352;stroke-linecap:butt;stroke-linejoin:miter;stroke-miterlimit:4;stroke-dasharray:none;stroke-opacity:1"
         d="M 0,0 C 0.016,0.867 -0.353,2.237 -1.872,2.237 -3.253,2.237 -3.836,0.961 -3.943,0 Z m -3.959,-0.992 c 0.031,-1.875 1.182,-2.647 2.547,-2.647 0.968,0 1.566,0.173 2.057,0.393 L 0.89,-4.238 c -0.475,-0.22 -1.305,-0.488 -2.486,-0.488 -2.286,0 -3.652,1.56 -3.652,3.86 0,2.3 1.32,4.096 3.483,4.096 2.441,0 3.07,-2.174 3.07,-3.576 0,-0.284 -0.015,-0.489 -0.046,-0.646 z" /></g><g
       transform="translate(134.9883,382.5582)"
       id="g402"><path
         id="path404"
         style="fill:#231f20;fill-opacity:1;fill-rule:nonzero;stroke:none"
         d="M 0,0 C 0,-1.024 -0.123,-2.001 -0.384,-2.852 -0.537,-3.372 -0.737,-3.845 -0.967,-4.27 H 2.456 V 1.244 H 0 Z M 3.775,2.3 V -4.285 L 4.542,-4.301 4.466,-7.736 H 3.407 l -0.061,2.411 h -5.141 l -0.077,-2.411 h -1.044 l -0.061,3.419 0.629,0.032 c 0.323,0.488 0.568,1.008 0.737,1.559 0.291,0.945 0.43,1.97 0.43,3.041 V 2.3 Z" /></g><g
       transform="translate(134.9883,382.5582)"
       id="g406"><path
         id="path408"
         style="fill:none;stroke:#231f20;stroke-width:0.352;stroke-linecap:butt;stroke-linejoin:miter;stroke-miterlimit:4;stroke-dasharray:none;stroke-opacity:1"
         d="M 0,0 C 0,-1.024 -0.123,-2.001 -0.384,-2.852 -0.537,-3.372 -0.737,-3.845 -0.967,-4.27 H 2.456 V 1.244 H 0 Z M 3.775,2.3 V -4.285 L 4.542,-4.301 4.466,-7.736 H 3.407 l -0.061,2.411 h -5.141 l -0.077,-2.411 h -1.044 l -0.061,3.419 0.629,0.032 c 0.323,0.488 0.568,1.008 0.737,1.559 0.291,0.945 0.43,1.97 0.43,3.041 V 2.3 Z" /></g><g
       transform="translate(142.8911,381.0298)"
       id="g410"><path
         id="path412"
         style="fill:#231f20;fill-opacity:1;fill-rule:nonzero;stroke:none"
         d="m 0,0 c 0,-1.67 0.921,-2.931 2.24,-2.931 1.29,0 2.256,1.245 2.256,2.962 0,1.292 -0.629,2.915 -2.225,2.915 C 0.691,2.946 0,1.434 0,0 m 5.878,0.079 c 0,-2.82 -1.919,-4.049 -3.698,-4.049 -1.995,0 -3.561,1.512 -3.561,3.923 0,2.536 1.642,4.033 3.683,4.033 2.133,0 3.576,-1.591 3.576,-3.907" /></g><g
       transform="translate(142.8911,381.0298)"
       id="g414"><path
         id="path416"
         style="fill:none;stroke:#231f20;stroke-width:0.352;stroke-linecap:butt;stroke-linejoin:miter;stroke-miterlimit:4;stroke-dasharray:none;stroke-opacity:1"
         d="m 0,0 c 0,-1.67 0.921,-2.931 2.24,-2.931 1.29,0 2.256,1.245 2.256,2.962 0,1.292 -0.629,2.915 -2.225,2.915 C 0.691,2.946 0,1.434 0,0 Z m 5.878,0.079 c 0,-2.82 -1.919,-4.049 -3.698,-4.049 -1.995,0 -3.561,1.512 -3.561,3.923 0,2.536 1.642,4.033 3.683,4.033 2.133,0 3.576,-1.591 3.576,-3.907 z" /></g><g
       transform="translate(152.6973,381.6446)"
       id="g418"><path
         id="path420"
         style="fill:#231f20;fill-opacity:1;fill-rule:nonzero;stroke:none"
         d="M 0,0 H 1.013 C 2.01,0 3.038,0.299 3.038,1.212 3.038,1.969 2.394,2.331 1.044,2.331 0.583,2.331 0.307,2.3 0,2.268 Z m -0.016,-3.514 c 0.384,-0.031 0.661,-0.047 1.075,-0.047 0.92,0 2.271,0.205 2.271,1.324 0,1.103 -1.09,1.339 -2.363,1.339 h -0.983 z m -1.288,6.633 c 0.536,0.094 1.504,0.173 2.363,0.173 1.258,0 3.315,-0.22 3.315,-1.906 0,-0.945 -0.706,-1.544 -1.55,-1.733 v -0.031 c 1.089,-0.158 1.887,-0.772 1.887,-1.875 0,-2.001 -2.455,-2.253 -3.913,-2.253 -0.829,0 -1.703,0.063 -2.102,0.094 z" /></g><g
       transform="translate(152.6973,381.6446)"
       id="g422"><path
         id="path424"
         style="fill:none;stroke:#231f20;stroke-width:0.352;stroke-linecap:butt;stroke-linejoin:miter;stroke-miterlimit:4;stroke-dasharray:none;stroke-opacity:1"
         d="M 0,0 H 1.013 C 2.01,0 3.038,0.299 3.038,1.212 3.038,1.969 2.394,2.331 1.044,2.331 0.583,2.331 0.307,2.3 0,2.268 Z m -0.016,-3.514 c 0.384,-0.031 0.661,-0.047 1.075,-0.047 0.92,0 2.271,0.205 2.271,1.324 0,1.103 -1.09,1.339 -2.363,1.339 h -0.983 z m -1.288,6.633 c 0.536,0.094 1.504,0.173 2.363,0.173 1.258,0 3.315,-0.22 3.315,-1.906 0,-0.945 -0.706,-1.544 -1.55,-1.733 v -0.031 c 1.089,-0.158 1.887,-0.772 1.887,-1.875 0,-2.001 -2.455,-2.253 -3.913,-2.253 -0.829,0 -1.703,0.063 -2.102,0.094 z" /></g><path
       id="path426"
       style="fill:#231f20;fill-opacity:1;fill-rule:nonzero;stroke:none"
       d="m 168.073,377.233 h -1.334 v 7.625 h 1.334 z m -6.705,0.977 c 0.276,-0.047 0.568,-0.063 0.936,-0.063 1.043,0 2.148,0.425 2.148,1.622 0,1.229 -1.074,1.608 -2.087,1.608 -0.384,0 -0.721,-0.032 -0.997,-0.095 z m 0.015,6.648 v -2.584 c 0.276,0.048 0.706,0.095 1.197,0.095 1.596,0 3.222,-0.677 3.222,-2.568 0,-0.804 -0.306,-1.355 -0.782,-1.765 -0.813,-0.708 -2.01,-0.882 -2.992,-0.882 -0.737,0 -1.428,0.047 -1.995,0.111 v 7.593 z" /><path
       id="path428"
       style="fill:none;stroke:#231f20;stroke-width:0.352;stroke-linecap:butt;stroke-linejoin:miter;stroke-miterlimit:4;stroke-dasharray:none;stroke-opacity:1"
       d="m 168.073,377.233 h -1.334 v 7.625 h 1.334 z m -6.705,0.977 c 0.276,-0.047 0.568,-0.063 0.936,-0.063 1.043,0 2.148,0.425 2.148,1.622 0,1.229 -1.074,1.608 -2.087,1.608 -0.384,0 -0.721,-0.032 -0.997,-0.095 z m 0.015,6.648 v -2.584 c 0.276,0.048 0.706,0.095 1.197,0.095 1.596,0 3.222,-0.677 3.222,-2.568 0,-0.804 -0.306,-1.355 -0.782,-1.765 -0.813,-0.708 -2.01,-0.882 -2.992,-0.882 -0.737,0 -1.428,0.047 -1.995,0.111 v 7.593 z" /><g
       transform="translate(175.9619,381.7857)"
       id="g430"><path
         id="path432"
         style="fill:#231f20;fill-opacity:1;fill-rule:nonzero;stroke:none"
         d="M 0,0 C 0.015,0.867 -0.354,2.237 -1.873,2.237 -3.253,2.237 -3.836,0.961 -3.944,0 Z m -3.959,-0.992 c 0.03,-1.875 1.181,-2.647 2.547,-2.647 0.967,0 1.565,0.173 2.057,0.393 L 0.89,-4.238 c -0.476,-0.22 -1.305,-0.488 -2.486,-0.488 -2.286,0 -3.652,1.56 -3.652,3.86 0,2.3 1.319,4.096 3.483,4.096 2.44,0 3.069,-2.174 3.069,-3.576 0,-0.284 -0.015,-0.489 -0.046,-0.646 z" /></g><g
       transform="translate(175.9619,381.7857)"
       id="g434"><path
         id="path436"
         style="fill:none;stroke:#231f20;stroke-width:0.352;stroke-linecap:butt;stroke-linejoin:miter;stroke-miterlimit:4;stroke-dasharray:none;stroke-opacity:1"
         d="M 0,0 C 0.015,0.867 -0.354,2.237 -1.873,2.237 -3.253,2.237 -3.836,0.961 -3.944,0 Z m -3.959,-0.992 c 0.03,-1.875 1.181,-2.647 2.547,-2.647 0.967,0 1.565,0.173 2.057,0.393 L 0.89,-4.238 c -0.476,-0.22 -1.305,-0.488 -2.486,-0.488 -2.286,0 -3.652,1.56 -3.652,3.86 0,2.3 1.319,4.096 3.483,4.096 2.44,0 3.069,-2.174 3.069,-3.576 0,-0.284 -0.015,-0.489 -0.046,-0.646 z" /></g><g
       transform="translate(189.144,384.858)"
       id="g438"><path
         id="path440"
         style="fill:#231f20;fill-opacity:1;fill-rule:nonzero;stroke:none"
         d="m 0,0 v -1.087 h -2.317 v -6.538 h -1.351 v 6.538 H -5.985 V 0 Z" /></g><g
       transform="translate(189.144,384.858)"
       id="g442"><path
         id="path444"
         style="fill:none;stroke:#231f20;stroke-width:0.352;stroke-linecap:butt;stroke-linejoin:miter;stroke-miterlimit:4;stroke-dasharray:none;stroke-opacity:1"
         d="m 0,0 v -1.087 h -2.317 v -6.538 h -1.351 v 6.538 H -5.985 V 0 Z" /></g><g
       transform="translate(195.8037,381.7857)"
       id="g446"><path
         id="path448"
         style="fill:#231f20;fill-opacity:1;fill-rule:nonzero;stroke:none"
         d="M 0,0 C 0.016,0.867 -0.353,2.237 -1.872,2.237 -3.253,2.237 -3.836,0.961 -3.944,0 Z m -3.959,-0.992 c 0.03,-1.875 1.181,-2.647 2.547,-2.647 0.967,0 1.565,0.173 2.057,0.393 L 0.89,-4.238 c -0.475,-0.22 -1.305,-0.488 -2.486,-0.488 -2.286,0 -3.652,1.56 -3.652,3.86 0,2.3 1.319,4.096 3.483,4.096 2.44,0 3.069,-2.174 3.069,-3.576 0,-0.284 -0.015,-0.489 -0.046,-0.646 z" /></g><g
       transform="translate(195.8037,381.7857)"
       id="g450"><path
         id="path452"
         style="fill:none;stroke:#231f20;stroke-width:0.352;stroke-linecap:butt;stroke-linejoin:miter;stroke-miterlimit:4;stroke-dasharray:none;stroke-opacity:1"
         d="M 0,0 C 0.016,0.867 -0.353,2.237 -1.872,2.237 -3.253,2.237 -3.836,0.961 -3.944,0 Z m -3.959,-0.992 c 0.03,-1.875 1.181,-2.647 2.547,-2.647 0.967,0 1.565,0.173 2.057,0.393 L 0.89,-4.238 c -0.475,-0.22 -1.305,-0.488 -2.486,-0.488 -2.286,0 -3.652,1.56 -3.652,3.86 0,2.3 1.319,4.096 3.483,4.096 2.44,0 3.069,-2.174 3.069,-3.576 0,-0.284 -0.015,-0.489 -0.046,-0.646 z" /></g><g
       transform="translate(200.3154,384.858)"
       id="g454"><path
         id="path456"
         style="fill:#231f20;fill-opacity:1;fill-rule:nonzero;stroke:none"
         d="m 0,0 1.059,-1.638 c 0.292,-0.426 0.522,-0.803 0.767,-1.229 h 0.03 c 0.247,0.441 0.493,0.835 0.753,1.244 L 3.637,0 H 5.11 L 2.578,-3.687 5.172,-7.625 H 3.653 L 2.548,-5.908 C 2.256,-5.466 2.01,-5.042 1.749,-4.584 H 1.719 C 1.473,-5.042 1.228,-5.451 0.936,-5.908 L -0.138,-7.625 H -1.626 L 1.013,-3.734 -1.503,0 Z" /></g><g
       transform="translate(200.3154,384.858)"
       id="g458"><path
         id="path460"
         style="fill:none;stroke:#231f20;stroke-width:0.352;stroke-linecap:butt;stroke-linejoin:miter;stroke-miterlimit:4;stroke-dasharray:none;stroke-opacity:1"
         d="m 0,0 1.059,-1.638 c 0.292,-0.426 0.522,-0.803 0.767,-1.229 h 0.03 c 0.247,0.441 0.493,0.835 0.753,1.244 L 3.637,0 H 5.11 L 2.578,-3.687 5.172,-7.625 H 3.653 L 2.548,-5.908 C 2.256,-5.466 2.01,-5.042 1.749,-4.584 H 1.719 C 1.473,-5.042 1.228,-5.451 0.936,-5.908 L -0.138,-7.625 H -1.626 L 1.013,-3.734 -1.503,0 Z" /></g><g
       transform="translate(209.0625,384.858)"
       id="g462"><path
         id="path464"
         style="fill:#231f20;fill-opacity:1;fill-rule:nonzero;stroke:none"
         d="M 0,0 V -3.072 H 3.515 V 0 H 4.864 V -7.625 H 3.515 v 3.45 H 0 v -3.45 H -1.351 V 0 Z" /></g><g
       transform="translate(209.0625,384.858)"
       id="g466"><path
         id="path468"
         style="fill:none;stroke:#231f20;stroke-width:0.352;stroke-linecap:butt;stroke-linejoin:miter;stroke-miterlimit:4;stroke-dasharray:none;stroke-opacity:1"
         d="M 0,0 V -3.072 H 3.515 V 0 H 4.864 V -7.625 H 3.515 v 3.45 H 0 v -3.45 H -1.351 V 0 Z" /></g><g
       transform="translate(217.9482,381.0298)"
       id="g470"><path
         id="path472"
         style="fill:#231f20;fill-opacity:1;fill-rule:nonzero;stroke:none"
         d="m 0,0 c 0,-1.67 0.921,-2.931 2.24,-2.931 1.289,0 2.256,1.245 2.256,2.962 0,1.292 -0.629,2.915 -2.225,2.915 C 0.691,2.946 0,1.434 0,0 m 5.878,0.079 c 0,-2.82 -1.919,-4.049 -3.699,-4.049 -1.994,0 -3.56,1.512 -3.56,3.923 0,2.536 1.642,4.033 3.683,4.033 2.134,0 3.576,-1.591 3.576,-3.907" /></g><g
       transform="translate(217.9482,381.0298)"
       id="g474"><path
         id="path476"
         style="fill:none;stroke:#231f20;stroke-width:0.352;stroke-linecap:butt;stroke-linejoin:miter;stroke-miterlimit:4;stroke-dasharray:none;stroke-opacity:1"
         d="m 0,0 c 0,-1.67 0.921,-2.931 2.24,-2.931 1.289,0 2.256,1.245 2.256,2.962 0,1.292 -0.629,2.915 -2.225,2.915 C 0.691,2.946 0,1.434 0,0 Z m 5.878,0.079 c 0,-2.82 -1.919,-4.049 -3.699,-4.049 -1.994,0 -3.56,1.512 -3.56,3.923 0,2.536 1.642,4.033 3.683,4.033 2.134,0 3.576,-1.591 3.576,-3.907 z" /></g><g
       transform="translate(232.1426,384.858)"
       id="g478"><path
         id="path480"
         style="fill:#231f20;fill-opacity:1;fill-rule:nonzero;stroke:none"
         d="m 0,0 v -7.625 h -1.351 v 6.538 h -2.546 v -1.954 c 0,-2.142 -0.2,-3.576 -1.167,-4.222 -0.369,-0.299 -0.783,-0.472 -1.473,-0.472 l -0.139,1.087 c 0.261,0.047 0.553,0.157 0.738,0.315 0.69,0.52 0.766,1.591 0.766,3.292 V 0 Z" /></g><g
       transform="translate(232.1426,384.858)"
       id="g482"><path
         id="path484"
         style="fill:none;stroke:#231f20;stroke-width:0.352;stroke-linecap:butt;stroke-linejoin:miter;stroke-miterlimit:4;stroke-dasharray:none;stroke-opacity:1"
         d="m 0,0 v -7.625 h -1.351 v 6.538 h -2.546 v -1.954 c 0,-2.142 -0.2,-3.576 -1.167,-4.222 -0.369,-0.299 -0.783,-0.472 -1.473,-0.472 l -0.139,1.087 c 0.261,0.047 0.553,0.157 0.738,0.315 0.69,0.52 0.766,1.591 0.766,3.292 V 0 Z" /></g><g
       transform="translate(236.1484,381.0298)"
       id="g486"><path
         id="path488"
         style="fill:#231f20;fill-opacity:1;fill-rule:nonzero;stroke:none"
         d="m 0,0 c 0,-1.67 0.921,-2.931 2.24,-2.931 1.289,0 2.256,1.245 2.256,2.962 0,1.292 -0.629,2.915 -2.225,2.915 C 0.69,2.946 0,1.434 0,0 m 5.877,0.079 c 0,-2.82 -1.919,-4.049 -3.698,-4.049 -1.994,0 -3.56,1.512 -3.56,3.923 0,2.536 1.642,4.033 3.683,4.033 2.133,0 3.575,-1.591 3.575,-3.907" /></g><g
       transform="translate(236.1484,381.0298)"
       id="g490"><path
         id="path492"
         style="fill:none;stroke:#231f20;stroke-width:0.352;stroke-linecap:butt;stroke-linejoin:miter;stroke-miterlimit:4;stroke-dasharray:none;stroke-opacity:1"
         d="m 0,0 c 0,-1.67 0.921,-2.931 2.24,-2.931 1.289,0 2.256,1.245 2.256,2.962 0,1.292 -0.629,2.915 -2.225,2.915 C 0.69,2.946 0,1.434 0,0 Z m 5.877,0.079 c 0,-2.82 -1.919,-4.049 -3.698,-4.049 -1.994,0 -3.56,1.512 -3.56,3.923 0,2.536 1.642,4.033 3.683,4.033 2.133,0 3.575,-1.591 3.575,-3.907 z" /></g><g
       transform="translate(249.2217,384.858)"
       id="g494"><path
         id="path496"
         style="fill:#231f20;fill-opacity:1;fill-rule:nonzero;stroke:none"
         d="M 0,0 V -1.103 H -3.222 V -7.625 H -4.557 V 0 Z" /></g><g
       transform="translate(249.2217,384.858)"
       id="g498"><path
         id="path500"
         style="fill:none;stroke:#231f20;stroke-width:0.352;stroke-linecap:butt;stroke-linejoin:miter;stroke-miterlimit:4;stroke-dasharray:none;stroke-opacity:1"
         d="M 0,0 V -1.103 H -3.222 V -7.625 H -4.557 V 0 Z" /></g><g
       transform="translate(252.7061,384.858)"
       id="g502"><path
         id="path504"
         style="fill:#231f20;fill-opacity:1;fill-rule:nonzero;stroke:none"
         d="m 0,0 v -3.213 c 0,-1.198 -0.03,-1.97 -0.092,-3.058 l 0.046,-0.015 c 0.46,0.93 0.706,1.465 1.213,2.348 L 3.483,0 h 1.58 V -7.625 H 3.775 v 3.23 c 0,1.244 0.031,1.89 0.092,3.135 H 3.837 C 3.346,-2.252 3.038,-2.867 2.594,-3.639 1.888,-4.821 1.059,-6.286 0.276,-7.625 H -1.289 V 0 Z" /></g><g
       transform="translate(252.7061,384.858)"
       id="g506"><path
         id="path508"
         style="fill:none;stroke:#231f20;stroke-width:0.352;stroke-linecap:butt;stroke-linejoin:miter;stroke-miterlimit:4;stroke-dasharray:none;stroke-opacity:1"
         d="m 0,0 v -3.213 c 0,-1.198 -0.03,-1.97 -0.092,-3.058 l 0.046,-0.015 c 0.46,0.93 0.706,1.465 1.213,2.348 L 3.483,0 h 1.58 V -7.625 H 3.775 v 3.23 c 0,1.244 0.031,1.89 0.092,3.135 H 3.837 C 3.346,-2.252 3.038,-2.867 2.594,-3.639 1.888,-4.821 1.059,-6.286 0.276,-7.625 H -1.289 V 0 Z" /></g><g
       transform="translate(262.1738,384.858)"
       id="g510"><path
         id="path512"
         style="fill:#231f20;fill-opacity:1;fill-rule:nonzero;stroke:none"
         d="m 0,0 v -3.213 c 0,-1.198 -0.03,-1.97 -0.092,-3.058 l 0.046,-0.015 c 0.46,0.93 0.706,1.465 1.213,2.348 L 3.483,0 h 1.58 V -7.625 H 3.775 v 3.23 c 0,1.244 0.031,1.89 0.092,3.135 H 3.837 C 3.346,-2.252 3.039,-2.867 2.594,-3.639 1.888,-4.821 1.059,-6.286 0.276,-7.625 H -1.289 V 0 Z" /></g><g
       transform="translate(262.1738,384.858)"
       id="g514"><path
         id="path516"
         style="fill:none;stroke:#231f20;stroke-width:0.352;stroke-linecap:butt;stroke-linejoin:miter;stroke-miterlimit:4;stroke-dasharray:none;stroke-opacity:1"
         d="m 0,0 v -3.213 c 0,-1.198 -0.03,-1.97 -0.092,-3.058 l 0.046,-0.015 c 0.46,0.93 0.706,1.465 1.213,2.348 L 3.483,0 h 1.58 V -7.625 H 3.775 v 3.23 c 0,1.244 0.031,1.89 0.092,3.135 H 3.837 C 3.346,-2.252 3.039,-2.867 2.594,-3.639 1.888,-4.821 1.059,-6.286 0.276,-7.625 H -1.289 V 0 Z" /></g><g
       transform="translate(275.4629,381.0298)"
       id="g518"><path
         id="path520"
         style="fill:#231f20;fill-opacity:1;fill-rule:nonzero;stroke:none"
         d="m 0,0 c 0,-1.67 0.921,-2.931 2.24,-2.931 1.29,0 2.257,1.245 2.257,2.962 0,1.292 -0.63,2.915 -2.226,2.915 C 0.691,2.946 0,1.434 0,0 m 5.878,0.079 c 0,-2.82 -1.919,-4.049 -3.698,-4.049 -1.995,0 -3.561,1.512 -3.561,3.923 0,2.536 1.643,4.033 3.683,4.033 2.134,0 3.576,-1.591 3.576,-3.907" /></g><g
       transform="translate(275.4629,381.0298)"
       id="g522"><path
         id="path524"
         style="fill:none;stroke:#231f20;stroke-width:0.352;stroke-linecap:butt;stroke-linejoin:miter;stroke-miterlimit:4;stroke-dasharray:none;stroke-opacity:1"
         d="m 0,0 c 0,-1.67 0.921,-2.931 2.24,-2.931 1.29,0 2.257,1.245 2.257,2.962 0,1.292 -0.63,2.915 -2.226,2.915 C 0.691,2.946 0,1.434 0,0 Z m 5.878,0.079 c 0,-2.82 -1.919,-4.049 -3.698,-4.049 -1.995,0 -3.561,1.512 -3.561,3.923 0,2.536 1.643,4.033 3.683,4.033 2.134,0 3.576,-1.591 3.576,-3.907 z" /></g><g
       transform="translate(285.0859,384.858)"
       id="g526"><path
         id="path528"
         style="fill:#231f20;fill-opacity:1;fill-rule:nonzero;stroke:none"
         d="m 0,0 v -2.568 c 0,-0.976 0.353,-1.623 1.534,-1.623 0.583,0 1.198,0.221 1.597,0.521 V 0 H 4.466 V -7.72 H 3.131 v 3.073 H 3.114 C 2.609,-4.979 1.795,-5.215 1.089,-5.215 c -1.396,0 -2.44,0.741 -2.44,2.474 V 0 Z" /></g><g
       transform="translate(285.0859,384.858)"
       id="g530"><path
         id="path532"
         style="fill:none;stroke:#231f20;stroke-width:0.352;stroke-linecap:butt;stroke-linejoin:miter;stroke-miterlimit:4;stroke-dasharray:none;stroke-opacity:1"
         d="m 0,0 v -2.568 c 0,-0.976 0.353,-1.623 1.534,-1.623 0.583,0 1.198,0.221 1.597,0.521 V 0 H 4.466 V -7.72 H 3.131 v 3.073 H 3.114 C 2.609,-4.979 1.795,-5.215 1.089,-5.215 c -1.396,0 -2.44,0.741 -2.44,2.474 V 0 Z" /></g><g
       transform="translate(293.9707,384.858)"
       id="g534"><path
         id="path536"
         style="fill:#231f20;fill-opacity:1;fill-rule:nonzero;stroke:none"
         d="m 0,0 v -3.213 c 0,-1.198 -0.03,-1.97 -0.092,-3.058 l 0.045,-0.015 c 0.461,0.93 0.706,1.465 1.213,2.348 L 3.483,0 h 1.58 V -7.625 H 3.775 v 3.23 c 0,1.244 0.031,1.89 0.092,3.135 H 3.837 C 3.345,-2.252 3.039,-2.867 2.594,-3.639 1.888,-4.821 1.059,-6.286 0.276,-7.625 H -1.289 V 0 Z" /></g><g
       transform="translate(293.9707,384.858)"
       id="g538"><path
         id="path540"
         style="fill:none;stroke:#231f20;stroke-width:0.352;stroke-linecap:butt;stroke-linejoin:miter;stroke-miterlimit:4;stroke-dasharray:none;stroke-opacity:1"
         d="m 0,0 v -3.213 c 0,-1.198 -0.03,-1.97 -0.092,-3.058 l 0.045,-0.015 c 0.461,0.93 0.706,1.465 1.213,2.348 L 3.483,0 h 1.58 V -7.625 H 3.775 v 3.23 c 0,1.244 0.031,1.89 0.092,3.135 H 3.837 C 3.345,-2.252 3.039,-2.867 2.594,-3.639 1.888,-4.821 1.059,-6.286 0.276,-7.625 H -1.289 V 0 Z" /></g><g
       transform="translate(307.4902,377.501)"
       id="g542"><path
         id="path544"
         style="fill:#231f20;fill-opacity:1;fill-rule:nonzero;stroke:none"
         d="m 0,0 c -0.353,-0.173 -1.135,-0.441 -2.133,-0.441 -2.24,0 -3.698,1.56 -3.698,3.891 0,2.347 1.565,4.065 3.99,4.065 0.798,0 1.504,-0.205 1.871,-0.41 L -0.275,6.05 c -0.323,0.173 -0.829,0.362 -1.566,0.362 -1.703,0 -2.624,-1.308 -2.624,-2.883 0,-1.765 1.105,-2.852 2.577,-2.852 0.768,0 1.275,0.189 1.658,0.362 z" /></g><g
       transform="translate(307.4902,377.501)"
       id="g546"><path
         id="path548"
         style="fill:none;stroke:#231f20;stroke-width:0.352;stroke-linecap:butt;stroke-linejoin:miter;stroke-miterlimit:4;stroke-dasharray:none;stroke-opacity:1"
         d="m 0,0 c -0.353,-0.173 -1.135,-0.441 -2.133,-0.441 -2.24,0 -3.698,1.56 -3.698,3.891 0,2.347 1.565,4.065 3.99,4.065 0.798,0 1.504,-0.205 1.871,-0.41 L -0.275,6.05 c -0.323,0.173 -0.829,0.362 -1.566,0.362 -1.703,0 -2.624,-1.308 -2.624,-2.883 0,-1.765 1.105,-2.852 2.577,-2.852 0.768,0 1.275,0.189 1.658,0.362 z" /></g><g
       transform="translate(315.3018,384.858)"
       id="g550"><path
         id="path552"
         style="fill:#231f20;fill-opacity:1;fill-rule:nonzero;stroke:none"
         d="m 0,0 v -1.087 h -2.318 v -6.538 h -1.35 v 6.538 H -5.986 V 0 Z" /></g><g
       transform="translate(315.3018,384.858)"
       id="g554"><path
         id="path556"
         style="fill:none;stroke:#231f20;stroke-width:0.352;stroke-linecap:butt;stroke-linejoin:miter;stroke-miterlimit:4;stroke-dasharray:none;stroke-opacity:1"
         d="m 0,0 v -1.087 h -2.318 v -6.538 h -1.35 v 6.538 H -5.986 V 0 Z" /></g><g
       transform="translate(318.7852,384.858)"
       id="g558"><path
         id="path560"
         style="fill:#231f20;fill-opacity:1;fill-rule:nonzero;stroke:none"
         d="M 0,0 V -3.308 H 0.321 L 3.1,0 H 4.742 L 1.52,-3.434 C 2.716,-3.576 3.438,-4.395 4.021,-5.766 4.22,-6.271 4.466,-7.011 4.804,-7.625 H 3.391 c -0.2,0.331 -0.446,0.93 -0.69,1.56 -0.507,1.229 -1.198,1.795 -2.44,1.795 H 0 V -7.625 H -1.335 V 0 Z" /></g><g
       transform="translate(318.7852,384.858)"
       id="g562"><path
         id="path564"
         style="fill:none;stroke:#231f20;stroke-width:0.352;stroke-linecap:butt;stroke-linejoin:miter;stroke-miterlimit:4;stroke-dasharray:none;stroke-opacity:1"
         d="M 0,0 V -3.308 H 0.321 L 3.1,0 H 4.742 L 1.52,-3.434 C 2.716,-3.576 3.438,-4.395 4.021,-5.766 4.22,-6.271 4.466,-7.011 4.804,-7.625 H 3.391 c -0.2,0.331 -0.446,0.93 -0.69,1.56 -0.507,1.229 -1.198,1.795 -2.44,1.795 H 0 V -7.625 H -1.335 V 0 Z" /></g><g
       transform="translate(327.0098,384.858)"
       id="g566"><path
         id="path568"
         style="fill:#231f20;fill-opacity:1;fill-rule:nonzero;stroke:none"
         d="m 0,0 v -3.213 c 0,-1.198 -0.03,-1.97 -0.091,-3.058 l 0.045,-0.015 c 0.46,0.93 0.706,1.465 1.213,2.348 L 3.483,0 H 5.064 V -7.625 H 3.775 v 3.23 c 0,1.244 0.031,1.89 0.092,3.135 H 3.837 C 3.346,-2.252 3.039,-2.867 2.595,-3.639 1.888,-4.821 1.06,-6.286 0.276,-7.625 H -1.289 V 0 Z" /></g><g
       transform="translate(327.0098,384.858)"
       id="g570"><path
         id="path572"
         style="fill:none;stroke:#231f20;stroke-width:0.352;stroke-linecap:butt;stroke-linejoin:miter;stroke-miterlimit:4;stroke-dasharray:none;stroke-opacity:1"
         d="m 0,0 v -3.213 c 0,-1.198 -0.03,-1.97 -0.091,-3.058 l 0.045,-0.015 c 0.46,0.93 0.706,1.465 1.213,2.348 L 3.483,0 H 5.064 V -7.625 H 3.775 v 3.23 c 0,1.244 0.031,1.89 0.092,3.135 H 3.837 C 3.346,-2.252 3.039,-2.867 2.595,-3.639 1.888,-4.821 1.06,-6.286 0.276,-7.625 H -1.289 V 0 Z" /></g><g
       transform="translate(121.5327,332.5328)"
       id="g574"><path
         id="path576"
         style="fill:#7e0823;fill-opacity:1;fill-rule:nonzero;stroke:none"
         d="m 0,0 c -1.118,-0.82 -2.54,-1.408 -4.27,-1.764 -1.728,-0.357 -3.501,-0.535 -5.317,-0.535 -2.2,0 -4.288,0.35 -6.26,1.051 -1.974,0.701 -3.712,1.832 -5.213,3.395 -1.502,1.563 -2.698,3.592 -3.588,6.09 -0.891,2.497 -1.336,5.524 -1.336,9.081 0,3.7 0.497,6.799 1.492,9.296 0.996,2.497 2.287,4.509 3.877,6.036 1.589,1.527 3.362,2.622 5.318,3.288 1.955,0.664 3.911,0.996 5.867,0.996 2.096,0 3.868,-0.144 5.318,-0.431 1.449,-0.288 2.646,-0.629 3.589,-1.024 l -1.415,-6.251 c -0.804,0.395 -1.755,0.682 -2.855,0.862 -1.101,0.18 -2.436,0.269 -4.008,0.269 -2.899,0 -5.231,-1.062 -6.994,-3.186 -1.764,-2.125 -2.645,-5.418 -2.645,-9.882 0,-1.944 0.209,-3.718 0.628,-5.319 0.419,-1.603 1.056,-2.972 1.912,-4.105 0.856,-1.134 1.921,-2.016 3.196,-2.646 1.275,-0.63 2.75,-0.945 4.427,-0.945 1.571,0 2.899,0.161 3.982,0.485 1.082,0.323 2.024,0.736 2.829,1.239 z" /></g><g
       transform="translate(121.5327,332.5328)"
       id="g578"><path
         id="path580"
         style="fill:none;stroke:#7e0823;stroke-width:0.704;stroke-linecap:butt;stroke-linejoin:miter;stroke-miterlimit:4;stroke-dasharray:none;stroke-opacity:1"
         d="m 0,0 c -1.118,-0.82 -2.54,-1.408 -4.27,-1.764 -1.728,-0.357 -3.501,-0.535 -5.317,-0.535 -2.2,0 -4.288,0.35 -6.26,1.051 -1.974,0.701 -3.712,1.832 -5.213,3.395 -1.502,1.563 -2.698,3.592 -3.588,6.09 -0.891,2.497 -1.336,5.524 -1.336,9.081 0,3.7 0.497,6.799 1.492,9.296 0.996,2.497 2.287,4.509 3.877,6.036 1.589,1.527 3.362,2.622 5.318,3.288 1.955,0.664 3.911,0.996 5.867,0.996 2.096,0 3.868,-0.144 5.318,-0.431 1.449,-0.288 2.646,-0.629 3.589,-1.024 l -1.415,-6.251 c -0.804,0.395 -1.755,0.682 -2.855,0.862 -1.101,0.18 -2.436,0.269 -4.008,0.269 -2.899,0 -5.231,-1.062 -6.994,-3.186 -1.764,-2.125 -2.645,-5.418 -2.645,-9.882 0,-1.944 0.209,-3.718 0.628,-5.319 0.419,-1.603 1.056,-2.972 1.912,-4.105 0.856,-1.134 1.921,-2.016 3.196,-2.646 1.275,-0.63 2.75,-0.945 4.427,-0.945 1.571,0 2.899,0.161 3.982,0.485 1.082,0.323 2.024,0.736 2.829,1.239 z" /></g><g
       transform="translate(136.6206,336.647)"
       id="g582"><path
         id="path584"
         style="fill:#7e0823;fill-opacity:1;fill-rule:nonzero;stroke:none"
         d="m 0,0 c 0.908,0 1.755,0.115 2.541,0.343 0.786,0.23 1.475,0.583 2.069,1.059 0.594,0.476 1.065,1.085 1.415,1.827 0.349,0.741 0.524,1.641 0.524,2.7 0,1.27 -0.193,2.294 -0.576,3.07 -0.385,0.776 -0.909,1.384 -1.573,1.826 -0.663,0.441 -1.422,0.731 -2.278,0.873 -0.856,0.141 -1.773,0.212 -2.75,0.212 -0.49,0 -1.101,-0.044 -1.834,-0.132 C -3.195,11.69 -3.702,11.61 -3.981,11.54 V 0.264 C -3.597,0.159 -3.012,0.088 -2.227,0.053 -1.441,0.018 -0.699,0 0,0 m -11.159,32.065 h 22.58 V 25.491 H -3.981 v -7.868 c 0.593,0.107 1.317,0.215 2.174,0.323 0.855,0.108 1.703,0.162 2.54,0.162 1.956,0 3.755,-0.198 5.397,-0.593 1.641,-0.396 3.046,-1.051 4.217,-1.967 1.17,-0.917 2.087,-2.121 2.75,-3.611 0.664,-1.491 0.995,-3.314 0.995,-5.47 0,-2.12 -0.34,-3.97 -1.021,-5.551 C 12.39,-0.666 11.412,-1.977 10.137,-3.018 8.862,-4.061 7.325,-4.85 5.527,-5.389 3.728,-5.928 1.711,-6.197 -0.523,-6.197 c -0.595,0 -1.337,0.018 -2.227,0.053 -0.891,0.037 -1.834,0.091 -2.829,0.162 -0.996,0.072 -1.983,0.162 -2.96,0.27 -0.978,0.108 -1.852,0.25 -2.62,0.431 z" /></g><g
       transform="translate(136.6206,336.647)"
       id="g586"><path
         id="path588"
         style="fill:none;stroke:#7e0823;stroke-width:0.704;stroke-linecap:butt;stroke-linejoin:miter;stroke-miterlimit:4;stroke-dasharray:none;stroke-opacity:1"
         d="m 0,0 c 0.908,0 1.755,0.115 2.541,0.343 0.786,0.23 1.475,0.583 2.069,1.059 0.594,0.476 1.065,1.085 1.415,1.827 0.349,0.741 0.524,1.641 0.524,2.7 0,1.27 -0.193,2.294 -0.576,3.07 -0.385,0.776 -0.909,1.384 -1.573,1.826 -0.663,0.441 -1.422,0.731 -2.278,0.873 -0.856,0.141 -1.773,0.212 -2.75,0.212 -0.49,0 -1.101,-0.044 -1.834,-0.132 C -3.195,11.69 -3.702,11.61 -3.981,11.54 V 0.264 C -3.597,0.159 -3.012,0.088 -2.227,0.053 -1.441,0.018 -0.699,0 0,0 Z m -11.159,32.065 h 22.58 V 25.491 H -3.981 v -7.868 c 0.593,0.107 1.317,0.215 2.174,0.323 0.855,0.108 1.703,0.162 2.54,0.162 1.956,0 3.755,-0.198 5.397,-0.593 1.641,-0.396 3.046,-1.051 4.217,-1.967 1.17,-0.917 2.087,-2.121 2.75,-3.611 0.664,-1.491 0.995,-3.314 0.995,-5.47 0,-2.12 -0.34,-3.97 -1.021,-5.551 C 12.39,-0.666 11.412,-1.977 10.137,-3.018 8.862,-4.061 7.325,-4.85 5.527,-5.389 3.728,-5.928 1.711,-6.197 -0.523,-6.197 c -0.595,0 -1.337,0.018 -2.227,0.053 -0.891,0.037 -1.834,0.091 -2.829,0.162 -0.996,0.072 -1.983,0.162 -2.96,0.27 -0.978,0.108 -1.852,0.25 -2.62,0.431 z" /></g><g
       transform="translate(183.2466,350.5513)"
       id="g590"><path
         id="path592"
         style="fill:#7e0823;fill-opacity:1;fill-rule:nonzero;stroke:none"
         d="M 0,0 0.786,7.491 H 0.471 L -1.782,1.455 -9.588,-12.611 h -2.304 l -8.226,14.12 -2.305,5.982 h -0.262 l 1.048,-7.437 v -19.617 h -6.81 v 37.724 h 6.548 l 9.797,-17.245 1.728,-4.311 h 0.21 l 1.572,4.419 9.273,17.137 H 7.177 V -19.563 H 0 Z" /></g><g
       transform="translate(183.2466,350.5513)"
       id="g594"><path
         id="path596"
         style="fill:none;stroke:#7e0823;stroke-width:0.704;stroke-linecap:butt;stroke-linejoin:miter;stroke-miterlimit:4;stroke-dasharray:none;stroke-opacity:1"
         d="M 0,0 0.786,7.491 H 0.471 L -1.782,1.455 -9.588,-12.611 h -2.304 l -8.226,14.12 -2.305,5.982 h -0.262 l 1.048,-7.437 v -19.617 h -6.81 v 37.724 h 6.548 l 9.797,-17.245 1.728,-4.311 h 0.21 l 1.572,4.419 9.273,17.137 H 7.177 V -19.563 H 0 Z" /></g><path
       id="path598"
       style="fill:#7e0823;fill-opacity:1;fill-rule:nonzero;stroke:#7e0823;stroke-width:0.704;stroke-linecap:butt;stroke-linejoin:miter;stroke-miterlimit:4;stroke-dasharray:none;stroke-opacity:1"
       d="m 195.871,349.581 h 13.15 v -6.198 h -13.15 z" /><g
       transform="translate(235.8428,362.1378)"
       id="g600"><path
         id="path602"
         style="fill:#7e0823;fill-opacity:1;fill-rule:nonzero;stroke:none"
         d="m 0,0 h -14.145 v -31.149 h -7.176 V 6.575 H 0 Z" /></g><g
       transform="translate(235.8428,362.1378)"
       id="g604"><path
         id="path606"
         style="fill:none;stroke:#7e0823;stroke-width:0.704;stroke-linecap:butt;stroke-linejoin:miter;stroke-miterlimit:4;stroke-dasharray:none;stroke-opacity:1"
         d="m 0,0 h -14.145 v -31.149 h -7.176 V 6.575 H 0 Z" /></g><g
       transform="translate(243.2822,352.7608)"
       id="g608"><path
         id="path610"
         style="fill:#7e0823;fill-opacity:1;fill-rule:nonzero;stroke:none"
         d="m 0,0 c -1.328,0 -2.366,-0.342 -3.117,-1.024 -0.751,-0.683 -1.335,-1.707 -1.755,-3.072 v -11.21 c 0.489,-0.395 1.021,-0.709 1.598,-0.942 0.576,-0.234 1.336,-0.351 2.279,-0.351 1.956,0 3.423,0.709 4.4,2.129 0.978,1.419 1.467,3.763 1.467,7.033 0,2.371 -0.385,4.204 -1.152,5.497 C 2.951,-0.646 1.711,0 0,0 m -11.683,5.173 h 4.977 L -5.92,1.94 h 0.209 c 0.909,1.365 1.982,2.372 3.223,3.018 1.239,0.646 2.75,0.97 4.532,0.97 3.281,0 5.744,-1.069 7.386,-3.207 1.641,-2.138 2.462,-5.577 2.462,-10.32 0,-2.299 -0.262,-4.374 -0.786,-6.224 -0.524,-1.851 -1.301,-3.423 -2.331,-4.716 -1.03,-1.293 -2.288,-2.282 -3.772,-2.964 -1.484,-0.682 -3.188,-1.024 -5.108,-1.024 -1.082,0 -1.973,0.081 -2.671,0.242 -0.7,0.162 -1.398,0.424 -2.096,0.782 V -32.55 h -6.811 z" /></g><g
       transform="translate(243.2822,352.7608)"
       id="g612"><path
         id="path614"
         style="fill:none;stroke:#7e0823;stroke-width:0.704;stroke-linecap:butt;stroke-linejoin:miter;stroke-miterlimit:4;stroke-dasharray:none;stroke-opacity:1"
         d="m 0,0 c -1.328,0 -2.366,-0.342 -3.117,-1.024 -0.751,-0.683 -1.335,-1.707 -1.755,-3.072 v -11.21 c 0.489,-0.395 1.021,-0.709 1.598,-0.942 0.576,-0.234 1.336,-0.351 2.279,-0.351 1.956,0 3.423,0.709 4.4,2.129 0.978,1.419 1.467,3.763 1.467,7.033 0,2.371 -0.385,4.204 -1.152,5.497 C 2.951,-0.646 1.711,0 0,0 Z m -11.683,5.173 h 4.977 L -5.92,1.94 h 0.209 c 0.909,1.365 1.982,2.372 3.223,3.018 1.239,0.646 2.75,0.97 4.532,0.97 3.281,0 5.744,-1.069 7.386,-3.207 1.641,-2.138 2.462,-5.577 2.462,-10.32 0,-2.299 -0.262,-4.374 -0.786,-6.224 -0.524,-1.851 -1.301,-3.423 -2.331,-4.716 -1.03,-1.293 -2.288,-2.282 -3.772,-2.964 -1.484,-0.682 -3.188,-1.024 -5.108,-1.024 -1.082,0 -1.973,0.081 -2.671,0.242 -0.7,0.162 -1.398,0.424 -2.096,0.782 V -32.55 h -6.811 z" /></g><g
       transform="translate(268.2725,342.7906)"
       id="g616"><path
         id="path618"
         style="fill:#7e0823;fill-opacity:1;fill-rule:nonzero;stroke:none"
         d="m 0,0 0.942,-4.204 h 0.315 l 0.68,4.258 3.983,15.09 h 7.019 L 4.977,-9.162 c -0.664,-2.012 -1.301,-3.853 -1.913,-5.524 -0.611,-1.67 -1.284,-3.116 -2.017,-4.337 -0.733,-1.222 -1.545,-2.164 -2.436,-2.83 -0.89,-0.665 -1.947,-0.997 -3.17,-0.997 -1.816,0 -3.265,0.306 -4.347,0.916 l 1.258,5.605 c 0.523,-0.215 1.046,-0.323 1.571,-0.323 0.803,0 1.579,0.35 2.331,1.05 0.751,0.701 1.318,1.968 1.703,3.8 l -10.949,26.946 h 8.172 z" /></g><g
       transform="translate(268.2725,342.7906)"
       id="g620"><path
         id="path622"
         style="fill:none;stroke:#7e0823;stroke-width:0.704;stroke-linecap:butt;stroke-linejoin:miter;stroke-miterlimit:4;stroke-dasharray:none;stroke-opacity:1"
         d="m 0,0 0.942,-4.204 h 0.315 l 0.68,4.258 3.983,15.09 h 7.019 L 4.977,-9.162 c -0.664,-2.012 -1.301,-3.853 -1.913,-5.524 -0.611,-1.67 -1.284,-3.116 -2.017,-4.337 -0.733,-1.222 -1.545,-2.164 -2.436,-2.83 -0.89,-0.665 -1.947,-0.997 -3.17,-0.997 -1.816,0 -3.265,0.306 -4.347,0.916 l 1.258,5.605 c 0.523,-0.215 1.046,-0.323 1.571,-0.323 0.803,0 1.579,0.35 2.331,1.05 0.751,0.701 1.318,1.968 1.703,3.8 l -10.949,26.946 h 8.172 z" /></g><g
       transform="translate(298.3437,351.7369)"
       id="g624"><path
         id="path626"
         style="fill:#7e0823;fill-opacity:1;fill-rule:nonzero;stroke:none"
         d="m 0,0 h -8.277 v -20.749 h -6.812 V 6.197 H 6.81 V -20.749 H 0 Z" /></g><g
       transform="translate(298.3437,351.7369)"
       id="g628"><path
         id="path630"
         style="fill:none;stroke:#7e0823;stroke-width:0.704;stroke-linecap:butt;stroke-linejoin:miter;stroke-miterlimit:4;stroke-dasharray:none;stroke-opacity:1"
         d="m 0,0 h -8.277 v -20.749 h -6.812 V 6.197 H 6.81 V -20.749 H 0 Z" /></g><g
       transform="translate(325.6895,351.7369)"
       id="g632"><path
         id="path634"
         style="fill:#7e0823;fill-opacity:1;fill-rule:nonzero;stroke:none"
         d="m 0,0 h -8.276 v -20.749 h -6.812 V 6.197 H 6.811 V -20.749 H 0 Z" /></g><g
       transform="translate(325.6895,351.7369)"
       id="g636"><path
         id="path638"
         style="fill:none;stroke:#7e0823;stroke-width:0.704;stroke-linecap:butt;stroke-linejoin:miter;stroke-miterlimit:4;stroke-dasharray:none;stroke-opacity:1"
         d="m 0,0 h -8.276 v -20.749 h -6.812 V 6.197 H 6.811 V -20.749 H 0 Z" /></g></g></svg>
