<?xml version="1.0" encoding="UTF-8" standalone="no"?>
<svg
   viewBox="0 0 250.00002 80.000002"
   height="80"
   width="250"
   xml:space="preserve"
   id="svg2"
   version="1.1"
   sodipodi:docname="logo-smal.svg"
   inkscape:version="1.3.2 (091e20e, 2023-11-25, custom)"
   xmlns:inkscape="http://www.inkscape.org/namespaces/inkscape"
   xmlns:sodipodi="http://sodipodi.sourceforge.net/DTD/sodipodi-0.dtd"
   xmlns="http://www.w3.org/2000/svg"
   xmlns:svg="http://www.w3.org/2000/svg"
   xmlns:rdf="http://www.w3.org/1999/02/22-rdf-syntax-ns#"
   xmlns:cc="http://creativecommons.org/ns#"
   xmlns:dc="http://purl.org/dc/elements/1.1/"><sodipodi:namedview
     id="namedview1"
     pagecolor="#ffffff"
     bordercolor="#000000"
     borderopacity="0.25"
     inkscape:showpageshadow="2"
     inkscape:pageopacity="0.0"
     inkscape:pagecheckerboard="0"
     inkscape:deskcolor="#d1d1d1"
     inkscape:zoom="4.0411823"
     inkscape:cx="97.867399"
     inkscape:cy="74.359427"
     inkscape:window-width="1920"
     inkscape:window-height="1017"
     inkscape:window-x="-8"
     inkscape:window-y="-8"
     inkscape:window-maximized="1"
     inkscape:current-layer="svg2" /><metadata
     id="metadata8"><rdf:RDF><cc:Work
         rdf:about=""><dc:format>image/svg+xml</dc:format><dc:type
           rdf:resource="http://purl.org/dc/dcmitype/StillImage" /></cc:Work></rdf:RDF></metadata><defs
     id="defs6"><clipPath
       id="clipPath348"
       clipPathUnits="userSpaceOnUse"><path
         id="path346"
         d="M 0,430.964 H 348.622 V 0 H 0 Z" /></clipPath></defs><g
     id="g320"
     transform="matrix(1.3333333,0,0,-1.3333333,-22.455122,515.9637)"><g
       id="g322"><g
         id="g328"><g
           id="g330"><path
             id="path340"
             style="fill:#4c9ccf;fill-opacity:1;stroke:none;stroke-width:0.851458"
             d="m 18.469677,356.71751 c 0,-15.86182 12.859573,-28.72309 28.72309,-28.72309 v 0 c 15.862666,0 28.72309,12.86127 28.72309,28.72309 v 0 c 0,15.86437 -12.860424,28.72479 -28.72309,28.72479 v 0 c -15.863517,0 -28.72309,-12.86042 -28.72309,-28.72479" /></g></g></g></g><g
     clip-path="url(#clipPath348)"
     id="g344"
     transform="matrix(1.3333333,0,0,-1.3333333,-22.702574,514.9739)"><g
       transform="translate(14.563,355.9756)"
       id="g350" /><g
       transform="translate(49.043,347.4669)"
       id="g354"><path
         id="path356"
         style="fill:#ffffff;fill-opacity:1;fill-rule:evenodd;stroke:none"
         d="M 0,0 V 4.985 C 8.884,4.976 17.437,11.639 13.236,21.486 9.937,29.221 -2.758,31.535 -10.828,26.644 -27.185,16.729 -21.468,-11.047 0,-10.829 v -4.985 c -15.373,-0.119 -30.031,16.293 -23.377,33.347 2.389,6.121 7.531,10.782 13.579,13.237 4.241,1.718 10.134,2.075 14.783,0.686 C 24.455,25.64 21.005,1.115 0,0" /></g><g
       transform="translate(49.043,370.5001)"
       id="g358"><path
         id="path360"
         style="fill:#ffffff;fill-opacity:1;fill-rule:evenodd;stroke:none"
         d="m 0,0 v -1.718 c -14.01,0.253 -14.166,-20.968 0,-21.315 v -4.814 C -18.566,-26.533 -18.318,0.3 0,0" /></g><g
       transform="translate(49.043,365.6871)"
       id="g362"><path
         id="path364"
         style="fill:#ffffff;fill-opacity:1;fill-rule:evenodd;stroke:none"
         d="M 0,0 C -0.057,-0.458 -0.115,-0.917 -0.171,-1.375 -2.563,-1.634 -4.226,-3.919 -3.609,-6.016 -2.993,-8.112 -2.016,-8.482 0,-8.766 v -4.297 C -8.13,-13.141 -8.391,-0.005 0,0" /></g><g
       transform="translate(49.0469,372.2496)"
       id="g366"><path
         id="path368"
         style="fill:#ffffff;fill-opacity:1;fill-rule:evenodd;stroke:none"
         d="m 0,0 c -0.012,-0.015 -0.018,-0.033 -0.029,-0.049 v -1.695 c 5.862,-0.501 6.259,-9.563 0,-9.764 v -3.786 C 10.328,-15.267 9.99,-2.516 0,0" /></g><g
       transform="translate(102.7935,384.858)"
       id="g370" /><g
       transform="translate(102.7935,384.858)"
       id="g374" /><g
       transform="translate(110.6655,381.7857)"
       id="g378" /><g
       transform="translate(110.6655,381.7857)"
       id="g382" /><g
       transform="translate(115.9443,380.3365)"
       id="g386" /><g
       transform="translate(115.9443,380.3365)"
       id="g390" /><g
       transform="translate(129.0186,381.7857)"
       id="g394" /><g
       transform="translate(129.0186,381.7857)"
       id="g398" /><g
       transform="translate(134.9883,382.5582)"
       id="g402" /><g
       transform="translate(134.9883,382.5582)"
       id="g406" /><g
       transform="translate(142.8911,381.0298)"
       id="g410" /><g
       transform="translate(142.8911,381.0298)"
       id="g414" /><g
       transform="translate(152.6973,381.6446)"
       id="g418" /><g
       transform="translate(152.6973,381.6446)"
       id="g422" /><g
       transform="translate(175.9619,381.7857)"
       id="g430" /><g
       transform="translate(175.9619,381.7857)"
       id="g434" /><g
       transform="translate(189.144,384.858)"
       id="g438" /><g
       transform="translate(189.144,384.858)"
       id="g442" /><g
       transform="translate(195.8037,381.7857)"
       id="g446" /><g
       transform="translate(195.8037,381.7857)"
       id="g450" /><g
       transform="translate(200.3154,384.858)"
       id="g454" /><g
       transform="translate(200.3154,384.858)"
       id="g458" /><g
       transform="translate(209.0625,384.858)"
       id="g462" /><g
       transform="translate(209.0625,384.858)"
       id="g466" /><g
       transform="translate(217.9482,381.0298)"
       id="g470" /><g
       transform="translate(217.9482,381.0298)"
       id="g474" /><g
       transform="translate(232.1426,384.858)"
       id="g478" /><g
       transform="translate(232.1426,384.858)"
       id="g482" /><g
       transform="translate(236.1484,381.0298)"
       id="g486" /><g
       transform="translate(236.1484,381.0298)"
       id="g490" /><g
       transform="translate(249.2217,384.858)"
       id="g494" /><g
       transform="translate(249.2217,384.858)"
       id="g498" /><g
       transform="translate(252.7061,384.858)"
       id="g502" /><g
       transform="translate(252.7061,384.858)"
       id="g506" /><g
       transform="translate(262.1738,384.858)"
       id="g510" /><g
       transform="translate(262.1738,384.858)"
       id="g514" /><g
       transform="translate(275.4629,381.0298)"
       id="g518" /><g
       transform="translate(275.4629,381.0298)"
       id="g522" /><g
       transform="translate(285.0859,384.858)"
       id="g526" /><g
       transform="translate(285.0859,384.858)"
       id="g530" /><g
       transform="translate(293.9707,384.858)"
       id="g534" /><g
       transform="translate(293.9707,384.858)"
       id="g538" /><g
       transform="translate(307.4902,377.501)"
       id="g542" /><g
       transform="translate(307.4902,377.501)"
       id="g546" /><g
       transform="translate(315.3018,384.858)"
       id="g550" /><g
       transform="translate(315.3018,384.858)"
       id="g554" /><g
       transform="translate(318.7852,384.858)"
       id="g558" /><g
       transform="translate(318.7852,384.858)"
       id="g562" /><g
       transform="translate(327.0098,384.858)"
       id="g566" /><g
       transform="translate(327.0098,384.858)"
       id="g570" /><g
       transform="translate(121.5327,332.5328)"
       id="g574"><path
         id="path576"
         style="fill:#585858;fill-opacity:1;fill-rule:nonzero;stroke:#515151;stroke-width:0.395532;stroke-opacity:1"
         d="m -29.42768,17.051311 c -0.442206,-0.324338 -1.004654,-0.556911 -1.688927,-0.697721 -0.683481,-0.141205 -1.38476,-0.21161 -2.103048,-0.21161 -0.870172,0 -1.696045,0.138437 -2.476037,0.415706 -0.780781,0.277268 -1.468218,0.724615 -2.061913,1.342834 -0.594089,0.618218 -1.067148,1.420754 -1.419172,2.408796 -0.35242,0.987645 -0.528432,2.184924 -0.528432,3.591834 0,1.463472 0.19658,2.68923 0.590135,3.676875 0.393951,0.987646 0.904585,1.783458 1.533481,2.387436 0.628503,0.60398 1.329783,1.037089 2.103445,1.300514 0.773267,0.262633 1.546929,0.393949 2.320591,0.393949 0.829038,0 1.529922,-0.05695 2.103445,-0.170473 0.573127,-0.113913 1.04658,-0.248791 1.419568,-0.405026 l -0.55968,-2.472476 c -0.318008,0.156235 -0.69416,0.269753 -1.129246,0.340948 -0.435483,0.0712 -0.963518,0.106401 -1.585297,0.106401 -1.146648,0 -2.069031,-0.420057 -2.766357,-1.260169 -0.697719,-0.840507 -1.046184,-2.142997 -1.046184,-3.908656 0,-0.768917 0.08267,-1.470592 0.248395,-2.10384 0.165728,-0.634039 0.417683,-1.175524 0.756259,-1.623663 0.338576,-0.448534 0.759819,-0.797395 1.264123,-1.04658 0.504305,-0.249187 1.087715,-0.37378 1.751024,-0.37378 0.621382,0 1.14665,0.06368 1.575011,0.191834 0.427968,0.127757 0.80056,0.291112 1.118964,0.490066 z" /></g><g
       transform="translate(121.5327,332.5328)"
       id="g578" /><g
       transform="translate(136.6206,336.647)"
       id="g582" /><g
       transform="translate(136.6206,336.647)"
       id="g586"><path
         id="path588"
         style="fill:#585858;fill-opacity:1;stroke:#515151;stroke-width:0.278455;stroke-linecap:butt;stroke-linejoin:miter;stroke-miterlimit:4;stroke-dasharray:none;stroke-opacity:1"
         d="m -37.210166,14.564412 c 0.359144,0 0.69416,0.04549 1.005049,0.135669 0.31089,0.09098 0.583412,0.230596 0.818358,0.418869 0.234946,0.188274 0.421243,0.429153 0.559679,0.722638 0.138042,0.29309 0.207259,0.64907 0.207259,1.067939 0,0.502327 -0.07634,0.907354 -0.227827,1.214287 -0.15228,0.306934 -0.359539,0.547418 -0.622173,0.722244 -0.262239,0.174429 -0.562448,0.289133 -0.901024,0.345299 -0.338576,0.05577 -0.70128,0.08385 -1.087716,0.08385 -0.193811,0 -0.435481,-0.01741 -0.725407,-0.05221 -0.289926,-0.03482 -0.490461,-0.06644 -0.600815,-0.09414 v -4.460041 c 0.151885,-0.04154 0.383271,-0.06962 0.693765,-0.08346 0.31089,-0.01385 0.604375,-0.02097 0.880852,-0.02096 z m -4.413753,12.682766 h 8.931135 v -2.600234 h -6.091999 V 21.53489 c 0.234551,0.04231 0.520917,0.08504 0.859889,0.127757 0.338181,0.04272 0.673593,0.06407 1.004654,0.06407 0.773662,0 1.485226,-0.07832 2.134691,-0.234552 0.64907,-0.156631 1.204794,-0.415706 1.667961,-0.778013 0.462775,-0.362704 0.825479,-0.838925 1.087718,-1.428271 0.262633,-0.589739 0.393554,-1.310795 0.393554,-2.163565 0,-0.83853 -0.13448,-1.570266 -0.403838,-2.195602 -0.26936,-0.625731 -0.656191,-1.144274 -1.160495,-1.556024 -0.504303,-0.412541 -1.112239,-0.724616 -1.823407,-0.937808 -0.711563,-0.213193 -1.509353,-0.319591 -2.392973,-0.319591 -0.235343,0 -0.528829,0.0071 -0.880853,0.02096 -0.35242,0.01464 -0.725407,0.03599 -1.118962,0.06407 -0.393952,0.02848 -0.784342,0.06407 -1.170778,0.106789 -0.386831,0.04273 -0.732527,0.09889 -1.036297,0.170475 z" /></g><g
       transform="translate(183.2466,350.5513)"
       id="g590"><path
         id="path592"
         style="fill:#585858;fill-opacity:1;fill-rule:nonzero;stroke:#515151;stroke-width:0.395532;stroke-opacity:1"
         d="m -64.571144,6.1597218 0.310889,2.9629377 h -0.124597 l -0.891132,-2.3874373 -3.08753,-5.5635664 h -0.911308 l -3.253654,5.5849252 -0.911704,2.3660785 h -0.103628 l 0.414518,-2.9415789 v -7.7591694 h -2.693579 V 13.342997 h 2.58995 l 3.875036,-6.820967 0.683481,-1.7051424 h 0.08306 l 0.621779,1.7478599 3.667776,6.7782495 h 2.569382 V -1.5780888 h -2.83874 z" /></g><g
       transform="translate(183.2466,350.5513)"
       id="g594" /><path
       id="path598"
       style="fill:#585858;fill-opacity:1;fill-rule:nonzero;stroke:#515151;stroke-width:0.278455;stroke-linecap:butt;stroke-linejoin:miter;stroke-miterlimit:4;stroke-dasharray:none;stroke-opacity:1"
       d="m 124.4917,356.32724 h 5.20125 v -2.45152 h -5.20125 z" /><g
       transform="translate(235.8428,362.1378)"
       id="g600"><path
         id="path602"
         style="fill:#585858;fill-opacity:1;fill-rule:nonzero;stroke:#515151;stroke-width:0.395532;stroke-opacity:1"
         d="m -94.71804,-0.84393574 h -5.59482 V -13.164392 h -2.83834 V 1.7566934 h 8.43316 z" /></g><g
       transform="translate(235.8428,362.1378)"
       id="g604" /><g
       transform="translate(243.2822,352.7608)"
       id="g608"><path
         id="path610"
         style="fill:#585858;fill-opacity:1;fill-rule:nonzero;stroke:#515151;stroke-width:0.395532;stroke-opacity:1"
         d="m -97.278486,4.8241519 c -0.52526,0 -0.93583,-0.1352723 -1.23288,-0.4050256 -0.29704,-0.2701491 -0.52803,-0.6751749 -0.694149,-1.2150773 v -4.433924 c 0.193409,-0.1562356 0.403829,-0.2804329 0.632069,-0.372592 0.22781,-0.092555 0.52843,-0.1388321 0.9014,-0.1388321 0.77368,0 1.35392,0.2804328 1.74036,0.84208956 0.38682,0.56126098 0.58025,1.48839011 0.58025,2.78178294 0,0.9378086 -0.15229,1.6628204 -0.45567,2.1742446 -0.30416,0.5118197 -0.79462,0.7673339 -1.47138,0.7673339 m -4.621004,2.0460919 h 1.968569 l 0.310878,-1.278758 h 0.0827 c 0.359548,0.5399024 0.783957,0.9382041 1.274807,1.1937184 0.49006,0.2555143 1.08772,0.3836672 1.79255,0.3836672 1.29776,0 2.27196,-0.4228249 2.92142,-1.2684744 0.64907,-0.8456494 0.973805,-2.2058873 0.973805,-4.0818999 0,-0.90933036 -0.103591,-1.73006123 -0.310899,-2.46179678 -0.207256,-0.73213152 -0.514586,-1.35390922 -0.921986,-1.86533342 -0.40739,-0.511424 -0.90498,-0.9026061 -1.49195,-1.1723597 -0.58697,-0.2697534 -1.26096,-0.4050256 -2.02039,-0.4050256 -0.42796,0 -0.78038,0.032038 -1.05646,0.095719 -0.27688,0.064076 -0.55296,0.167706 -0.829039,0.3093067 v -4.3694524 h -2.693965 z" /></g><g
       transform="translate(243.2822,352.7608)"
       id="g612" /><g
       transform="translate(268.2725,342.7906)"
       id="g616"><path
         id="path618"
         style="fill:#585858;fill-opacity:1;fill-rule:nonzero;stroke:#515151;stroke-width:0.395532;stroke-opacity:1"
         d="m -111.19021,10.850809 0.37259,-1.6628203 h 0.12453 l 0.26898,1.6841783 1.5754,5.968593 h 2.77625 l -3.14924,-9.6138235 c -0.26263,-0.7958124 -0.51459,-1.5239885 -0.75665,-2.1849237 -0.24167,-0.6605399 -0.50787,-1.2324805 -0.7978,-1.7154263 -0.28991,-0.4833414 -0.61108,-0.8559334 -0.96351,-1.1193583 -0.35202,-0.2630295 -0.77009,-0.3943463 -1.25384,-0.3943463 -0.71829,0 -1.29141,0.1210335 -1.71937,0.3623082 l 0.49756,2.2169621 c 0.20688,-0.08504 0.41374,-0.1277571 0.6214,-0.1277571 0.31761,0 0.62454,0.1384365 0.92197,0.4153095 0.29705,0.2772685 0.52132,0.7784087 0.67361,1.5030249 l -4.3307,10.6580305 h 3.23229 z" /></g><g
       transform="translate(268.2725,342.7906)"
       id="g620" /><g
       transform="translate(298.3437,351.7369)"
       id="g624"><path
         id="path626"
         style="fill:#585858;fill-opacity:1;fill-rule:nonzero;stroke:#515151;stroke-width:0.395532;stroke-opacity:1"
         d="m -128.21521,5.4430656 h -3.27383 v -8.2069125 h -2.69437 V 7.8941836 h 8.66178 V -2.7638469 h -2.69358 z" /></g><g
       transform="translate(298.3437,351.7369)"
       id="g628" /><g
       transform="translate(325.6895,351.7369)"
       id="g632"><path
         id="path634"
         style="fill:#585858;fill-opacity:1;fill-rule:nonzero;stroke:#515151;stroke-width:0.395532;stroke-opacity:1"
         d="m -144.2511,5.4430656 h -3.27344 v -8.2069125 h -2.69437 V 7.8941836 h 8.66178 V -2.7638469 h -2.69397 z" /></g><g
       transform="translate(325.6895,351.7369)"
       id="g636" /></g></svg>
